<?xml version="1.0" encoding="UTF-8"?>
<svg id="LOGO_PURPLE_BLACK" data-name="LOGO PURPLE BLACK" xmlns="http://www.w3.org/2000/svg" viewBox="0 0 1606.67 1620.67">
  <defs>
    <style>
      .cls-1 {
        stroke-width: 0px;
      }
    </style>
  </defs>
  <path class="cls-1" d="m456.95,1175.56c-45.19,0-88.94.1-132.69-.04-32.01-.1-54.8-22.7-54.8-54.24-.03-210.58-.03-421.16,0-631.73,0-30.55,23.03-53.51,54.01-53.58,62.5-.16,125.02.83,187.49-.42,30.61-.61,55.56,22.84,55.99,53.34.77,53.83.63,107.69.23,161.53-.03,3.43-5.33,9.55-8.49,9.76-16.28,1.06-32.66.64-49,.67-8.91.02-9.24-5.63-9.2-12.71.27-45.67-.28-91.35.49-137.01.22-12.8-3.99-16.76-16.34-16.63-44.71.47-89.43.6-134.13-.08-11.58-.18-13.47,4.25-13.43,14.36.32,84.61.19,169.23.19,253.85,0,113.46.13,226.92-.25,340.39-.04,10.5,2.27,14.43,13.41,14.3,44.71-.53,89.42-.49,134.13-.04,12.04.12,16.69-2.98,16.45-16.25-.89-48.54-.16-97.11-.63-145.66-.09-9.53,2.94-13.09,12.29-12.84,14.41.39,28.84.17,43.27.12,8.05-.03,11.83,2.53,11.74,11.89-.52,53.84-.72,107.69-.21,161.53.31,32.6-21.75,62.78-60.08,59.73-16.24-1.3-32.67-.21-50.46-.21Z"/>
  <path class="cls-1" d="m1061.87,887.09c-.66,2.7-1.89,5.39-1.88,8.09.01,90.96.06,182.86-.83,275.85-21.22.39-44.63.17-66.01-.23.13-50.89.38-101.79.37-152.68-.05-191.58-.18-383.16.77-576.71,2.8-2.67,4.54-3.98,6.28-3.98,79.72-.07,159.43-.32,239.14.27,15.1.11,29,7.87,35.14,21.58,5.64,12.58,8.97,27.29,9.07,41.08.72,106.13.42,212.26.37,318.39,0,7.19-.24,14.42-.98,21.57-1.69,16.46-9.93,29.4-24.84,36.05-10.57,4.72-22.58,6.22-33.95,9.15-48.19-.12-96.38-.23-146.61-.86-6.71.47-11.38,1.44-16.06,2.42m157.69-257.37c0-39.86-.4-79.73.28-119.57.21-11.95-3.14-15.97-15.41-15.79-43.69.64-87.4.63-131.1-.02-11.27-.17-13.66,3.79-13.63,14.14.31,101.81.3,203.62-.03,305.43-.03,9.37,2.4,12.76,12.04,12.69,45.14-.37,90.28-.34,135.42-.03,10.29.07,12.76-3.96,12.68-13.87-.47-60.03-.25-120.06-.26-182.97Z"/>
  <path class="cls-1" d="m692.04,1118.81c0,55.15,0,108.85,0,163.54h-62.82v-699.15l2.81-.33c6.23,17.69,12.52,35.36,18.67,53.07,13.03,37.52,26.15,75.02,38.81,112.67,2.09,6.23,2.81,13.19,2.81,19.81.04,116.31-.14,232.63-.27,350.38Z"/>
  <path class="cls-1" d="m933.16,636.94c0,134.33,0,267.23,0,400.12-.65.04-1.3.07-1.96.11-12.4-34.88-24.87-69.75-37.18-104.66-6.21-17.6-13-35.06-17.95-53.01-3.62-13.14-6.51-26.98-6.56-40.53-.55-167.78-.53-335.55-.62-503.33,0-1.88.43-3.77.77-6.56h63.49c0,102.71,0,204.57,0,307.87Z"/>
  <polygon class="cls-1" points="627.17 435.69 678 435.53 940.22 1175.64 886 1175.99 627.17 435.69"/>
</svg>